# xmcd
#
# Track frame offsets:
#	150
#	12897
#	26757
#	45745
#	59107
#	96812
#	117305
#	133057
#	147165
#	166547
#	186157
#	205462
#	217550
#	234152
#	253420
#	274495
#	291902
#
# Disc length: 4324 seconds
#
# Revision: 2
# Processed by: cddbd v1.5.2PL0 Copyright (c) Steve Scherf et al.
# Submitted via: EasyCDDAExtractor 15.3.0.1
#
DISCID=0110e211
DTITLE=Mijares - El Encuentro...
DYEAR=1995
DGENRE=Latin
TTITLE0=Volveras
TTITLE1=No Se Murio El Amor
TTITLE2=Tan Solo
TTITLE3=Mi Unica Droga Eres Tu
TTITLE4=Para Amarnos Mas, Me Acordare De Ti, Que Nada Nos Separe, Para Amarnos
TTITLE4=Mas
TTITLE5=Tarde O Temprano (Dueto Con Barrio Boyzz)
TTITLE6=Palabras De Mujer, Perfidia
TTITLE7=El Corazon Sigue Aferrado
TTITLE8=El Breve Espacio En Que No Estas
TTITLE9=Te Dejare (Ti Lascero) (Dueto Con Patricia Sosa)
TTITLE10=Corazon Salvaje
TTITLE11=Soldado Del Amor
TTITLE12=Cuatro Veces Amor (Dueto Con Lucero)
TTITLE13=Bella
TTITLE14=No Hace Falta
TTITLE15=Uno Entre Mil
TTITLE16=Bonita, A Pedir Su Mano, Para Nene Para, Bonita
EXTD=
EXTT0=
EXTT1=
EXTT2=
EXTT3=
EXTT4=
EXTT5=
EXTT6=
EXTT7=
EXTT8=
EXTT9=
EXTT10=
EXTT11=
EXTT12=
EXTT13=
EXTT14=
EXTT15=
EXTT16=
PLAYORDER=
